<?xml version="1.0" standalone="no"?><svg xmlns="http://www.w3.org/2000/svg" viewBox="0 0 1440 320"><path fill="#001100" fill-opacity="0.98" d="M0,160L21.8,149.3C43.6,139,87,117,131,133.3C174.5,149,218,203,262,197.3C305.5,192,349,128,393,112C436.4,96,480,128,524,117.3C567.3,107,611,53,655,48C698.2,43,742,85,785,122.7C829.1,160,873,192,916,176C960,160,1004,96,1047,85.3C1090.9,75,1135,117,1178,160C1221.8,203,1265,245,1309,245.3C1352.7,245,1396,203,1418,181.3L1440,160L1440,0L1418.2,0C1396.4,0,1353,0,1309,0C1265.5,0,1222,0,1178,0C1134.5,0,1091,0,1047,0C1003.6,0,960,0,916,0C872.7,0,829,0,785,0C741.8,0,698,0,655,0C610.9,0,567,0,524,0C480,0,436,0,393,0C349.1,0,305,0,262,0C218.2,0,175,0,131,0C87.3,0,44,0,22,0L0,0Z"></path></svg>