<?xml version="1.0" standalone="no"?><svg xmlns="http://www.w3.org/2000/svg" viewBox="0 0 1440 320"><path fill="#273036" fill-opacity="0.97" d="M0,128L24,133.3C48,139,96,149,144,144C192,139,240,117,288,122.7C336,128,384,160,432,192C480,224,528,256,576,234.7C624,213,672,139,720,138.7C768,139,816,213,864,224C912,235,960,181,1008,144C1056,107,1104,85,1152,96C1200,107,1248,149,1296,170.7C1344,192,1392,192,1416,192L1440,192L1440,0L1416,0C1392,0,1344,0,1296,0C1248,0,1200,0,1152,0C1104,0,1056,0,1008,0C960,0,912,0,864,0C816,0,768,0,720,0C672,0,624,0,576,0C528,0,480,0,432,0C384,0,336,0,288,0C240,0,192,0,144,0C96,0,48,0,24,0L0,0Z"></path></svg>